<svg xmlns="http://www.w3.org/2000/svg" width="512" height="512" viewBox="0 0 512 512">
  <defs>
    <radialGradient id="sky" cx="50%" cy="30%" r="70%">
      <stop offset="0%" stop-color="#87CEEB"/>
      <stop offset="100%" stop-color="#4A90D9"/>
    </radialGradient>
    <linearGradient id="wall" x1="0" y1="0" x2="0" y2="1">
      <stop offset="0%" stop-color="#D4A574"/>
      <stop offset="100%" stop-color="#A0724E"/>
    </linearGradient>
    <linearGradient id="roof" x1="0" y1="0" x2="0" y2="1">
      <stop offset="0%" stop-color="#C0392B"/>
      <stop offset="100%" stop-color="#922B21"/>
    </linearGradient>
    <filter id="shadow" x="-10%" y="-10%" width="120%" height="130%">
      <feDropShadow dx="2" dy="4" stdDeviation="6" flood-color="#00000044"/>
    </filter>
  </defs>
  <ellipse cx="256" cy="256" rx="245" ry="245" fill="white" filter="url(#shadow)"/>
  <ellipse cx="256" cy="256" rx="235" ry="235" fill="url(#sky)"/>
  <g opacity="0.7">
    <ellipse cx="120" cy="100" rx="45" ry="20" fill="white"/>
    <ellipse cx="145" cy="92" rx="35" ry="18" fill="white"/>
    <ellipse cx="380" cy="130" rx="40" ry="16" fill="white"/>
    <ellipse cx="400" cy="124" rx="30" ry="14" fill="white"/>
  </g>
  <ellipse cx="256" cy="420" rx="220" ry="60" fill="#5D8A3C"/>
  <ellipse cx="256" cy="415" rx="200" ry="45" fill="#6B9E47"/>
  <g>
    <path d="M130 340 L140 260 L372 260 L382 340 Z" fill="url(#wall)" stroke="#8B6914" stroke-width="1.5"/>
    <path d="M145 260 L155 200 L357 200 L367 260 Z" fill="#DEB887" stroke="#8B6914" stroke-width="1.5"/>
    <line x1="160" y1="280" x2="352" y2="280" stroke="#8B691488" stroke-width="1"/>
    <line x1="150" y1="300" x2="362" y2="300" stroke="#8B691488" stroke-width="1"/>
    <line x1="140" y1="320" x2="372" y2="320" stroke="#8B691488" stroke-width="1"/>
    <line x1="155" y1="220" x2="357" y2="220" stroke="#8B691488" stroke-width="1"/>
    <line x1="155" y1="240" x2="362" y2="240" stroke="#8B691488" stroke-width="1"/>
    <line x1="200" y1="200" x2="190" y2="340" stroke="#8B691444" stroke-width="1"/>
    <line x1="256" y1="200" x2="256" y2="340" stroke="#8B691444" stroke-width="1"/>
    <line x1="312" y1="200" x2="322" y2="340" stroke="#8B691444" stroke-width="1"/>
    <path d="M120 205 L256 140 L392 205 L380 200 L256 148 L132 200 Z" fill="url(#roof)" stroke="#6B1A12" stroke-width="1.5"/>
    <path d="M110 208 Q256 175 402 208 Q256 190 110 208 Z" fill="#C0392B"/>
    <path d="M105 210 Q256 178 407 210" fill="none" stroke="#922B21" stroke-width="3"/>
    <rect x="200" y="155" width="112" height="45" rx="2" fill="#DEB887" stroke="#8B6914" stroke-width="1"/>
    <path d="M180 158 L256 120 L332 158 Z" fill="url(#roof)" stroke="#6B1A12" stroke-width="1.5"/>
    <path d="M175 160 Q256 132 337 160" fill="none" stroke="#922B21" stroke-width="2.5"/>
    <rect x="245" y="105" width="22" height="20" rx="1" fill="#DEB887" stroke="#8B6914" stroke-width="1"/>
    <path d="M238 108 L256 88 L274 108 Z" fill="url(#roof)" stroke="#6B1A12" stroke-width="1"/>
    <path d="M236 340 L236 290 Q256 275 276 290 L276 340 Z" fill="#4A3520"/>
  </g>
</svg>
